<?xml version="1.0" encoding="UTF-8"?>
<svg xmlns="http://www.w3.org/2000/svg" id="Layer_3" data-name="Layer 3" viewBox="0 0 64 64" width="512" height="512"><path d="M57.651,24.286c-.007,0-.012-.009-.019-.012A5,5,0,0,0,51,29H49a6.923,6.923,0,0,1,8.5-6.819A5,5,0,0,0,53,15a1.094,1.094,0,0,1-1.075-.831A4.978,4.978,0,0,0,47,10a1.094,1.094,0,0,1-1.075-.831,4.99,4.99,0,0,0-7.381-3.521l-.016,0A5.014,5.014,0,0,0,36,10H34a7.006,7.006,0,0,1,2.5-5.342,6.96,6.96,0,0,0-9.794.773,1,1,0,0,1-1.249.217,4.99,4.99,0,0,0-7.381,3.521,1,1,0,0,1-.045.127A4.993,4.993,0,0,0,23,14v2a7,7,0,0,1-6.908-5.922,4.982,4.982,0,0,0-4.017,4.091,1,1,0,0,1-1,.835l-.1,0a5,5,0,0,0-4.122,7.785l0,.012h0A5,5,0,0,0,11,25v2a6.992,6.992,0,0,1-5.3-2.428A4.992,4.992,0,0,0,8,34a1,1,0,0,1,1,1,4,4,0,0,0,4,4,3.9,3.9,0,0,0,1.379-.266A10.006,10.006,0,0,1,24,26v2a8,8,0,0,0-7.474,10.853c0,.012.015.019.02.031a7.984,7.984,0,0,0,13.5,2.342A1,1,0,0,1,31,40.9a5.012,5.012,0,0,0,3.783-.747,1,1,0,0,1,1.5.5A5,5,0,0,0,46,39h2a7.006,7.006,0,0,1-5.888,6.9A4,4,0,0,0,46,49a2.608,2.608,0,0,1,2.342,1.446A4.592,4.592,0,0,0,52.472,53h.05l-.6-1.5a5.353,5.353,0,0,1,.516-4.955A3.33,3.33,0,0,0,53,44.683V42.2a1,1,0,0,1,.5-.865A4.981,4.981,0,0,0,55.7,35.3a1,1,0,0,1,.835-1.333,5,5,0,0,0,1.118-9.685ZM37,35V33a6.006,6.006,0,0,0,6-6h2A8.009,8.009,0,0,1,37,35Z"/><circle cx="53" cy="60" r="2"/></svg>
