<?xml version="1.0" encoding="iso-8859-1"?>
<!-- Generator: Adobe Illustrator 19.0.0, SVG Export Plug-In . SVG Version: 6.00 Build 0)  -->
<svg version="1.1" id="Layer_1" xmlns="http://www.w3.org/2000/svg" xmlns:xlink="http://www.w3.org/1999/xlink" x="0px" y="0px"
	 viewBox="0 0 512 512" style="enable-background:new 0 0 512 512;" xml:space="preserve">
<g>
	<g>
		<path d="M204.8,170.667V256c0,28.233,22.967,51.2,51.2,51.2c28.233,0,51.2-22.967,51.2-51.2v-85.333H204.8z M273.067,256
			c0,9.428-7.639,17.067-17.067,17.067s-17.067-7.639-17.067-17.067v-34.133c0-9.428,7.639-17.067,17.067-17.067
			s17.067,7.639,17.067,17.067V256z"/>
	</g>
</g>
<g>
	<g>
		<path d="M443.733,170.667v307.2H460.8c28.233,0,51.2-22.967,51.2-51.2v-256H443.733z"/>
	</g>
</g>
<g>
	<g>
		<path d="M392.533,34.133H119.467c-60.063,0-109.777,44.603-118.104,102.4c373.16,0,136.418,0,509.274,0
			C502.311,78.736,452.597,34.133,392.533,34.133z"/>
	</g>
</g>
<g>
	<g>
		<rect x="102.4" y="170.667" width="68.267" height="34.133"/>
	</g>
</g>
<g>
	<g>
		<path d="M0,170.667v256c0,28.233,22.967,51.2,51.2,51.2h17.067v-307.2H0z"/>
	</g>
</g>
<g>
	<g>
		<path d="M392.533,307.2H409.6v-68.267h-68.267V256c0,47.055-38.278,85.333-85.333,85.333S170.667,303.055,170.667,256v-17.067
			H102.4V307.2h17.067c9.428,0,17.067,7.639,17.067,17.067c0,9.428-7.639,17.067-17.067,17.067H102.4v35.201h85.333
			c9.428,0,17.067,7.639,17.067,17.067c0,9.428-7.639,17.067-17.067,17.067H102.4v67.199h307.2V409.6h-85.333
			c-9.428,0-17.067-7.639-17.067-17.067c0-9.428,7.639-17.067,17.067-17.067H409.6v-34.133h-17.067
			c-9.428,0-17.067-7.639-17.067-17.067C375.467,314.839,383.106,307.2,392.533,307.2z"/>
	</g>
</g>
<g>
	<g>
		<rect x="341.333" y="170.667" width="68.267" height="34.133"/>
	</g>
</g>
<g>
</g>
<g>
</g>
<g>
</g>
<g>
</g>
<g>
</g>
<g>
</g>
<g>
</g>
<g>
</g>
<g>
</g>
<g>
</g>
<g>
</g>
<g>
</g>
<g>
</g>
<g>
</g>
<g>
</g>
</svg>
